<svg width="150" height="150" viewBox="0 0 150 150" fill="none" xmlns="http://www.w3.org/2000/svg" style="width: 200px; height: 200px;"><style>
     .garbage1 {animation:garbage1 3.5s infinite;}
     @keyframes garbage1 {
         0%{transform: translate3d(0, 0, 0);}
         20%{transform: translate3d(0, 0, 0);}
         80%{transform: translate3d(0, 70px, 0);}
         89%{transform: translate3d(0, 70px, 0); opacity: 1;}
         90%{transform: translate3d(0, 0, 0); opacity: 0;}
         100%{transform: translate3d(0, 0, 0); opacity: 1;}
     }
     @media (prefers-reduced-motion: reduce) {
         .garbage1  {
             animation: none;
         }
     }
    </style><path class="fillCls4" d="M58.6492 144.596L59.0788 144.537C59.0788 144.537 58.7861 147.111 58.6492 147.346C58.5124 147.58 50.3622 148.145 46.0723 147.95C41.7825 147.755 36.2167 146.764 34.0409 145.922C32.5493 145.344 33.1248 143.621 33.1248 143.621L49.9336 144.206L58.6492 144.596Z" fill="#000000" stroke-width="2px" style="animation-duration: 3.5s;"></path><path class="fillCls5" d="M43.4207 130.313C43.4596 130.41 43.2458 137.781 43.2458 137.781C43.2458 137.781 39.0773 139.775 38.8961 139.692C38.7149 139.61 35.2107 136.67 35.2107 136.67L35.0938 129.357L43.4207 130.313Z" fill="#FD8571" stroke-width="2px" style="animation-duration: 3.5s;"></path><path class="fillCls4" d="M43.6336 141.389L44.0631 141.33C44.0631 141.33 43.7705 143.904 43.6336 144.139C43.4968 144.374 35.3466 144.938 31.0567 144.743C26.7668 144.548 21.201 143.558 19.0253 142.715C17.5337 142.138 18.1092 140.414 18.1092 140.414L34.917 141L43.6336 141.389Z" fill="#000000" stroke-width="2px" style="animation-duration: 3.5s;"></path><path class="fillCls3" d="M43.2822 136.435C43.7353 136.455 43.7707 140.452 43.6338 141.389C39.6405 142.074 35.5962 142.42 31.5445 142.423C23.0426 142.403 18.1094 140.414 18.1094 140.414C18.1094 140.414 18.519 139.205 20.0395 138.737C21.2375 138.368 22.4772 138.308 23.7449 137.976C25.0127 137.644 28.5803 136.046 30.1988 134.954C31.8172 133.862 34.5276 131.815 34.9372 131.834C35.3468 131.853 36.8284 133.14 36.8674 133.608C36.9063 134.076 35.7174 135.246 35.7174 135.246C35.7174 135.246 36.8121 137.634 38.291 137.996C40.9235 138.639 43.2822 136.435 43.2822 136.435Z" fill="#DE0020" stroke-width="2px" style="animation-duration: 3.5s;"></path><path class="fillCls5" d="M58.4333 133.52C58.4723 133.618 58.2575 140.989 58.2575 140.989C58.2575 140.989 54.0891 142.983 53.9078 142.899C53.7266 142.816 50.2224 139.877 50.2224 139.877L50.1055 132.565L58.4333 133.52Z" fill="#FD8571" stroke-width="2px" style="animation-duration: 3.5s;"></path><path class="fillCls3" d="M58.2979 139.642C58.751 139.662 58.7863 143.66 58.6495 144.596C54.6563 145.284 50.612 145.631 46.5601 145.634C38.0583 145.614 33.125 143.626 33.125 143.626C33.125 143.626 33.5346 142.416 35.0552 141.949C36.2531 141.58 37.4928 141.52 38.7606 141.188C40.0283 140.857 43.5959 139.258 45.2144 138.166C46.8328 137.074 49.5432 135.026 49.9528 135.046C50.3624 135.066 51.844 136.352 51.883 136.82C51.922 137.289 50.7331 138.458 50.7331 138.458C50.7331 138.458 51.8277 140.846 53.3066 141.207C55.9391 141.846 58.2979 139.642 58.2979 139.642Z" fill="#DE0020" stroke-width="2px" style="animation-duration: 3.5s;"></path><path class="fillCls5" d="M111.492 54.0949C111.406 55.06 110.926 56.2943 109.783 55.7714C108.641 55.2485 107.121 48.318 107.121 48.318L110.032 46.5627L111.64 47.1771L111.492 54.0949Z" fill="#FD8571" stroke-width="2px" style="animation-duration: 3.5s;"></path><path class="fillCls13" d="M111.707 91.4114C122.902 91.4114 131.977 89.6474 131.977 87.4713C131.977 85.2953 122.902 83.5312 111.707 83.5312C100.512 83.5312 91.4375 85.2953 91.4375 87.4713C91.4375 89.6474 100.512 91.4114 111.707 91.4114Z" fill="#333333" stroke-width="2px" style="animation-duration: 3.5s;"></path><path class="fillCls13" d="M131.973 87.4707C131.973 87.4707 124.416 90.7603 111.705 90.7324C98.9938 90.7045 91.4375 87.4707 91.4375 87.4707H131.973Z" fill="#333333" stroke-width="2px" style="animation-duration: 3.5s;"></path><path class="fillCls7 garbage1" d="M114.776 45C114.776 45 115.126 52.254 116.706 55.8225C118.285 59.3911 122.088 63.5333 122.088 63.5333L115.239 67.2985L109.242 70C109.242 70 107.133 68.8408 106.146 67.428C105.159 66.0153 104.1 64.3343 103.369 62.7249C101.613 58.8646 101.438 52.5467 101.438 52.5467C101.438 52.5467 114.6 45 114.776 45Z" fill="#DDDDDD" stroke-width="2px" style="animation-duration: 3.5s;"></path><path class="fillCls11" d="M93.5616 143.839C96.8855 145.132 103.762 146.021 111.707 146.021C119.652 146.021 126.529 145.132 129.852 143.839L131.977 87.4746C131.977 87.4746 130.047 91.4445 111.707 91.3507C93.3671 91.257 91.4375 87.4746 91.4375 87.4746L93.5616 143.839Z" fill="#FF2B4A" stroke-width="2px" style="animation-duration: 3.5s;"></path><path class="strokeCls1" d="M92.5 94.3818C95.0663 95.9858 102.763 97.1502 111.858 97.1502C120.622 97.1502 128.086 96.0691 130.915 94.5558" stroke="#C8001D" stroke-width="2px" stroke-linecap="round" stroke-linejoin="round" style="animation-duration: 3.5s;"></path><path class="fillCls12" d="M111.746 139.563C112.245 139.563 112.724 139.366 113.078 139.014C113.433 138.663 113.634 138.186 113.639 137.687L113.952 105.029C113.955 104.739 113.9 104.452 113.791 104.183C113.682 103.914 113.52 103.67 113.316 103.464C113.112 103.258 112.87 103.094 112.602 102.983C112.334 102.871 112.047 102.814 111.757 102.813H111.719C111.42 102.814 111.125 102.873 110.849 102.988C110.573 103.103 110.323 103.272 110.113 103.485C109.903 103.697 109.737 103.949 109.625 104.226C109.513 104.504 109.458 104.8 109.461 105.099L109.852 137.692C109.857 138.19 110.059 138.666 110.414 139.016C110.769 139.367 111.247 139.563 111.746 139.563V139.563Z" fill="#C8001D" stroke-width="2px" style="animation-duration: 3.5s;"></path><path class="fillCls12" d="M120.63 139.171C121.129 139.172 121.608 138.975 121.963 138.623C122.318 138.272 122.519 137.795 122.524 137.295L123.718 104.637C123.721 104.347 123.667 104.06 123.558 103.791C123.449 103.522 123.287 103.278 123.083 103.072C122.879 102.866 122.636 102.702 122.369 102.591C122.101 102.479 121.814 102.422 121.524 102.422H121.486C121.187 102.422 120.891 102.481 120.615 102.596C120.339 102.712 120.089 102.88 119.879 103.093C119.669 103.306 119.504 103.558 119.392 103.835C119.28 104.112 119.225 104.408 119.228 104.707L118.734 137.297C118.74 137.796 118.942 138.273 119.297 138.624C119.652 138.975 120.131 139.172 120.63 139.171Z" fill="#C8001D" stroke-width="2px" style="animation-duration: 3.5s;"></path><path class="fillCls12" d="M131.475 100.778C131.317 100.743 131.155 100.725 130.993 100.725H130.955C130.657 100.725 130.362 100.785 130.086 100.9C129.811 101.015 129.562 101.184 129.352 101.396C129.143 101.608 128.977 101.86 128.866 102.137C128.754 102.413 128.698 102.709 128.701 103.007L127.332 135.6C127.338 136.098 127.54 136.574 127.895 136.924C128.249 137.275 128.728 137.471 129.226 137.471V137.471C129.532 137.471 129.833 137.397 130.104 137.255L131.475 100.778Z" fill="#C8001D" stroke-width="2px" style="animation-duration: 3.5s;"></path><path class="fillCls12" d="M102.782 139.171C102.283 139.172 101.803 138.975 101.449 138.623C101.094 138.272 100.893 137.795 100.888 137.295L99.6954 104.637C99.6925 104.347 99.7472 104.06 99.8562 103.791C99.9652 103.522 100.126 103.278 100.331 103.072C100.535 102.866 100.778 102.702 101.045 102.591C101.313 102.479 101.6 102.422 101.89 102.422H101.928C102.227 102.422 102.523 102.481 102.798 102.597C103.074 102.712 103.324 102.881 103.534 103.093C103.744 103.306 103.91 103.558 104.022 103.835C104.133 104.112 104.189 104.409 104.186 104.707L104.675 137.3C104.669 137.798 104.467 138.274 104.113 138.625C103.758 138.975 103.28 139.171 102.782 139.171V139.171Z" fill="#C8001D" stroke-width="2px" style="animation-duration: 3.5s;"></path><path class="fillCls12" d="M92.4576 100.722H92.4196C92.2574 100.722 92.0958 100.74 91.9375 100.775L93.3122 137.254C93.5991 137.405 93.9198 137.479 94.2437 137.47C94.5675 137.461 94.8836 137.369 95.1618 137.203C95.44 137.037 95.671 136.803 95.8326 136.522C95.9943 136.241 96.0812 135.924 96.0851 135.6L94.7186 103.007C94.7221 102.708 94.6661 102.411 94.554 102.134C94.442 101.857 94.2759 101.605 94.0656 101.392C93.8553 101.179 93.6049 101.011 93.3288 100.896C93.0528 100.781 92.7567 100.721 92.4576 100.722V100.722Z" fill="#C8001D" stroke-width="2px" style="animation-duration: 3.5s;"></path><path class="fillCls6" d="M52.6398 27.9896C57.3193 28.4581 67.9072 30.4698 74.4009 32.3592C80.8946 34.2486 96.162 38.1688 101.953 40.2159C107.745 42.2629 110.962 42.7604 112.424 44.7468C113.887 46.7331 114.063 50.801 113.829 52.5273C113.595 54.2535 113.127 55.2458 112.336 55.1552C111.546 55.0646 111.313 53.8974 111.43 52.4928C111.547 51.0882 111.664 48.077 110.26 48.106C108.857 48.135 108.3 49.3638 108.417 50.7339C108.534 52.1041 109.382 53.863 109.646 54.7112C109.91 55.5594 109.822 56.4954 109.207 56.6141C108.593 56.7329 108.008 56.1565 106.84 54.0188C105.673 51.8812 101.78 48.2854 101.78 48.2854C101.78 48.2854 89.9093 45.7708 85.4599 45.0685C81.0106 44.3662 58.2971 41.3241 58.2971 41.3241L58.375 44.0744L50.9062 41.4999L52.6398 27.9896Z" fill="#FEB0A3" stroke-width="2px" style="animation-duration: 3.5s;"></path><path class="strokeCls2" d="M100.404 39.2752C100.326 38.7904 100.206 38.505 100.042 38.4868C99.5461 38.4325 98.8546 40.9208 98.4922 44.0508C98.1297 47.1808 98.2475 49.7598 98.745 49.8196C98.9933 49.8477 99.2887 49.2396 99.5714 48.2328" stroke="#231F20" stroke-width="2px" stroke-linecap="round" stroke-linejoin="round" style="animation-duration: 3.5s;"></path><path class="strokeCls2" d="M98.7568 38.9154C98.6798 38.4315 98.5584 38.1461 98.3943 38.1271C97.8969 38.07 97.2036 40.5611 96.8457 43.6901C96.4877 46.8192 96.601 49.3991 97.0985 49.4589C97.3477 49.4879 97.6422 48.8789 97.9258 47.8722" stroke="#231F20" stroke-width="2px" stroke-linecap="round" stroke-linejoin="round" style="animation-duration: 3.5s;"></path><path class="strokeCls2" d="M97.2863 38.4461C97.2201 37.9595 97.105 37.6713 96.9437 37.6496C96.4481 37.5807 95.6977 40.0555 95.2691 43.1773C94.8405 46.2991 94.8958 48.8863 95.3914 48.9506C95.6397 48.985 95.9515 48.3833 96.2541 47.3829" stroke="#231F20" stroke-width="2px" stroke-linecap="round" stroke-linejoin="round" style="animation-duration: 3.5s;"></path><path class="fillCls6" d="M29.3021 28.9257C27.4698 30.1735 24.3498 32.2405 24.5056 49.8286C24.6615 67.4167 24.6615 71.0052 24.6615 71.0052L34.528 68.7397L31.6427 35.3605L29.3021 28.9257Z" fill="#FEB0A3" stroke-width="2px" style="animation-duration: 3.5s;"></path><path class="fillCls5" d="M31.6413 35.3605L29.3006 28.9266L29.1049 29.0607C27.3514 40.9245 27.6405 61.774 27.8489 70.2749L34.5265 68.7443L31.6413 35.3605Z" fill="#FD8571" stroke-width="2px" style="animation-duration: 3.5s;"></path><path class="fillCls6" d="M58.3467 48.7049L58.4101 54.9023L29.3008 54.509V48.2301L50.906 46.5138L58.3467 48.7049Z" fill="#FEB0A3" stroke-width="2px" style="animation-duration: 3.5s;"></path><path class="fillCls7" d="M18.3633 80.1115H30.5895V63.8491L18.3633 64.4336V80.1115Z" fill="#DDDDDD" stroke-width="2px" style="animation-duration: 3.5s;"></path><path class="fillCls6" d="M28.6267 74.0455C29.3779 74.0455 29.6797 75.2154 29.6063 77.248C29.5329 79.2806 29.3625 80.7141 28.5288 80.7141C27.9298 80.7141 27.793 80.1142 27.793 80.1142C27.7763 80.2625 27.7034 80.3987 27.5892 80.4948C27.4751 80.5909 27.3284 80.6396 27.1795 80.6308C26.6086 80.6308 26.2969 79.4029 26.2969 77.5307C26.2969 75.6984 26.5035 74.7052 27.0744 74.6907C27.6453 74.6762 27.7087 75.3124 27.7087 75.3124C27.7087 75.3124 27.6788 74.0455 28.6267 74.0455Z" fill="#FEB0A3" stroke-width="2px" style="animation-duration: 3.5s;"></path><path class="fillCls1" d="M58.6698 54.5092C58.7278 57.2685 58.5529 61.5674 60.3073 67.7104C62.0617 73.8535 60.2167 75.8661 60.3073 79.9947C60.3979 84.1232 62.4132 85.7861 62.3253 88.6813C62.2374 91.5766 61.0096 92.8933 61.1854 95.8764C61.3612 98.8596 63.2034 100.176 63.5541 103.511C63.9048 106.846 63.4952 106.523 63.5541 108.424C63.613 110.326 65.6012 113.105 65.5477 115.064C65.4943 117.023 64.7875 119.423 64.9333 121.704C65.0792 123.984 66.6007 124.278 66.7457 126.442C66.8907 128.606 66.1902 128.987 66.1902 130.215C66.1902 131.444 67.3891 132.146 67.3311 134.31L39.6019 134.602V130.773L27.9611 131.065C27.9611 131.065 27.8442 117.201 27.7264 113.107C27.6086 109.012 28.8971 96.2008 28.8971 92.5734C28.8971 88.9459 29.072 79.0604 29.3058 76.3699C29.5396 73.6795 29.3058 54.511 29.3058 54.511L58.6698 54.5092Z" fill="#0061FA" stroke-width="2px" style="animation-duration: 3.5s;"></path><path class="fillCls2" d="M39.4807 70.2848L39.5976 130.771L36.7305 130.843L39.4807 70.2848Z" fill="#0043AE" stroke-width="2px" style="animation-duration: 3.5s;"></path><path class="strokeCls3" d="M58.1708 57.1216H30.1797" stroke="#FFFFFF" stroke-width="2px" stroke-linecap="round" stroke-linejoin="round" style="animation-duration: 3.5s;"></path><path class="fillCls8" d="M33.7969 9.11475C33.787 8.45142 34.9569 6.42338 36.2826 5.93585C37.6083 5.44833 40.8307 5.1656 41.6372 8.63175C42.4437 12.0979 40.9359 14.9415 40.9359 14.9415L33.7969 9.11475Z" fill="#2B99FF" stroke-width="2px" style="animation-duration: 3.5s;"></path><path class="fillCls14" d="M58.3748 44.0771C58.3748 44.0771 54.982 41.8533 53.929 37.993C52.876 34.1326 52.6395 27.9896 52.6395 27.9896L45.5804 27.4051L32.8304 26.9756C32.8304 26.9756 30.9392 27.6389 29.3008 28.9257V48.2274C29.3008 48.2274 38.9534 48.0516 44.9778 48.2274C51.0021 48.4032 58.6666 48.8119 58.6666 48.8119L58.3748 44.0771Z" fill="#EEEEEE" stroke-width="2px" style="animation-duration: 3.5s;"></path><path class="strokeCls3" d="M39.4805 69.6986L39.3047 54.9894" stroke="#FFFFFF" stroke-width="2px" stroke-linecap="round" stroke-linejoin="round" style="animation-duration: 3.5s;"></path><path class="strokeCls3" d="M37.2199 54.9894C37.1067 57.9535 37.1003 60.9213 37.1529 63.8881C37.1782 65.3008 37.2208 66.739 37.6785 68.0756C37.768 68.3772 37.9144 68.659 38.1098 68.9056C38.2083 69.0286 38.3321 69.129 38.4728 69.1998C38.6136 69.2707 38.7679 69.3103 38.9254 69.3161" stroke="#FFFFFF" stroke-width="2px" stroke-linecap="round" stroke-linejoin="round" style="animation-duration: 3.5s;"></path><path class="fillCls6" d="M35.9516 17.0891C34.47 17.7524 32.6259 16.5626 32.6368 14.3008C32.6476 12.0389 34.0151 8.68242 34.0151 8.68242C34.0151 8.68242 35.581 9.46264 38.2741 7.94116L38.3711 10.2972L39.3461 10.4141C39.3461 10.4141 39.7557 8.5619 41.0815 8.54196C42.4072 8.52202 43.1095 9.90758 42.9147 11.1554C42.7335 12.3253 41.8427 13.2804 41.2772 13.3393C40.7118 13.3982 40.5749 13.0466 40.5749 13.0466L43.3071 27.2293L45.5888 27.4051C45.5888 27.4051 41.6107 32.4797 37.6525 32.3592C33.6943 32.2387 32.8361 26.9755 32.8361 26.9755L34.0839 26.6049L35.9516 17.0891Z" fill="#FEB0A3" stroke-width="2px" style="animation-duration: 3.5s;"></path><path class="fillCls10" d="M35.2731 11.1248C35.2586 11.1741 35.625 13.9745 35.625 13.9745L33.8125 14.2742L35.2731 11.1248Z" fill="#FF435F" stroke-width="2px" style="animation-duration: 3.5s;"></path><path class="fillCls10" d="M37.0501 12.9213C36.6636 12.9213 36.3503 12.6785 36.3503 12.379C36.3503 12.0795 36.6636 11.8367 37.0501 11.8367C37.4367 11.8367 37.75 12.0795 37.75 12.379C37.75 12.6785 37.4367 12.9213 37.0501 12.9213Z" fill="#FF435F" stroke-width="2px" style="animation-duration: 3.5s;"></path><path class="fillCls10" d="M32.7967 12.8053C32.8451 12.5095 32.904 12.2001 32.9756 11.8744C33.0577 11.8497 33.143 11.837 33.2288 11.8367C33.6155 11.8367 33.9297 12.0793 33.9297 12.379C33.9297 12.6786 33.6155 12.9213 33.2288 12.9213C33.0769 12.9228 32.9275 12.8827 32.7967 12.8053V12.8053Z" fill="#FF435F" stroke-width="2px" style="animation-duration: 3.5s;"></path><path class="fillCls9" d="M36.7504 11.1984C36.6212 11.1984 36.5165 11.0578 36.5165 10.8842C36.5165 10.7107 36.6212 10.5701 36.7504 10.5701C36.8796 10.5701 36.9844 10.7107 36.9844 10.8842C36.9844 11.0578 36.8796 11.1984 36.7504 11.1984Z" fill="#111111" stroke-width="2px" style="animation-duration: 3.5s;"></path><path class="fillCls9" d="M34.2393 11.0353C34.1299 11.0353 34.0412 10.9159 34.0412 10.7685C34.0412 10.6212 34.1299 10.5017 34.2393 10.5017C34.3488 10.5017 34.4375 10.6212 34.4375 10.7685C34.4375 10.9159 34.3488 11.0353 34.2393 11.0353Z" fill="#111111" stroke-width="2px" style="animation-duration: 3.5s;"></path><path class="fillCls9" d="M35.9223 15.2435C35.6378 15.4702 35.2936 15.6094 34.9315 15.6441C34.5693 15.6788 34.205 15.6075 33.8826 15.439" fill="#111111" stroke-width="2px" style="animation-duration: 3.5s;"></path><path class="fillCls5" d="M37.8428 19.5395C37.0052 20.0512 36.1261 20.4916 35.2148 20.8562L35.9561 17.0892C36.6508 16.7544 37.2851 16.3063 37.8328 15.7634L37.8428 19.5395Z" fill="#FD8571" stroke-width="2px" style="animation-duration: 3.5s;"></path><path class="fillCls8" d="M39.918 6.1153C40.6221 4.93726 42.1599 2.21871 45.5843 3.21551C49.104 4.2395 47.3197 8.68886 47.4955 11.1582C47.6713 13.6276 49.6304 13.2424 50.3327 14.9125C51.035 16.5826 49.8642 18.6596 51.122 20.8562L45.5843 21.467C45.5843 21.467 44.5123 20.3261 44.7171 19.0692C44.9219 17.8123 45.8571 17.1961 45.7991 15.7634C45.7411 14.3308 44.6292 13.8378 44.6582 12.5012C44.6872 11.1646 46.0039 9.5887 46.0918 8.12612C46.1797 6.66354 44.7751 5.67943 43.192 5.64318C42.2211 5.64102 41.2758 5.95391 40.4979 6.53486L39.918 6.1153Z" fill="#2B99FF" stroke-width="2px" style="animation-duration: 3.5s;"></path><path class="fillCls1" d="M44.1566 34.3837C44.1249 34.6293 44.2735 34.864 44.4466 35.0407C44.4901 35.0851 44.5372 35.1313 44.5816 35.1703L44.6922 34.0584C44.4802 33.9288 44.1875 34.1372 44.1566 34.3837Z" fill="#0061FA" stroke-width="2px" style="animation-duration: 3.5s;"></path><path class="fillCls1" d="M44.5788 35.1702L44.3867 37.1012C44.9975 36.9327 45.3083 36.1044 44.9603 35.5743C44.8502 35.4245 44.7221 35.2887 44.5788 35.1702V35.1702Z" fill="#0061FA" stroke-width="2px" style="animation-duration: 3.5s;"></path><path class="fillCls1" d="M33.0588 34.0095C33.0279 34.2559 33.1766 34.4897 33.3496 34.6674C33.3931 34.7118 33.4403 34.758 33.4847 34.796L33.5943 33.6841C33.3832 33.5555 33.0905 33.7639 33.0588 34.0095Z" fill="#0061FA" stroke-width="2px" style="animation-duration: 3.5s;"></path><path class="fillCls1" d="M33.4851 34.796L33.293 36.728C33.9028 36.5585 34.2146 35.7312 33.8666 35.2002C33.756 35.0507 33.6279 34.915 33.4851 34.796Z" fill="#0061FA" stroke-width="2px" style="animation-duration: 3.5s;"></path><path class="fillCls1" d="M46.6765 43.9602L46.4844 45.8922C47.0951 45.7227 47.406 44.8954 47.058 44.3653C46.9479 44.2151 46.8198 44.0791 46.6765 43.9602V43.9602Z" fill="#0061FA" stroke-width="2px" style="animation-duration: 3.5s;"></path><path class="fillCls1" d="M46.2504 43.1718C46.2187 43.4183 46.3673 43.6521 46.5404 43.8297C46.5839 43.8741 46.631 43.9203 46.6754 43.9584L46.7859 42.8465C46.5739 42.7178 46.2812 42.9262 46.2504 43.1718Z" fill="#0061FA" stroke-width="2px" style="animation-duration: 3.5s;"></path><path class="fillCls1" d="M36.9727 39.0668C36.9713 39.2526 36.9926 39.438 37.0362 39.6187L38.3465 38.1869C37.7566 37.9549 37.0108 38.4325 36.9727 39.0668Z" fill="#0061FA" stroke-width="2px" style="animation-duration: 3.5s;"></path><path class="fillCls1" d="M36.9047 40.5013C37.0778 40.3201 37.0986 40.0482 37.066 39.8017C37.0579 39.7401 37.047 39.6785 37.0352 39.6205L36.2812 40.4451C36.3737 40.6717 36.7325 40.6798 36.9047 40.5013Z" fill="#0061FA" stroke-width="2px" style="animation-duration: 3.5s;"></path><path class="fillCls1" d="M49.7462 30.1998C49.7448 30.3859 49.7661 30.5715 49.8096 30.7525L51.1199 29.3199C50.53 29.0906 49.7842 29.5682 49.7462 30.1998Z" fill="#0061FA" stroke-width="2px" style="animation-duration: 3.5s;"></path><path class="fillCls1" d="M49.8125 30.7526L49.0586 31.5772C49.1492 31.8074 49.5117 31.8155 49.682 31.637C49.8524 31.4585 49.876 31.1839 49.8433 30.9365C49.8325 30.8749 49.8243 30.8133 49.8125 30.7526Z" fill="#0061FA" stroke-width="2px" style="animation-duration: 3.5s;"></path><path class="fillCls1" d="M40.1666 45.634C40.2667 45.4763 40.3467 45.3068 40.4049 45.1293L38.5391 45.6657C38.9188 46.1705 39.8041 46.1523 40.1666 45.634Z" fill="#0061FA" stroke-width="2px" style="animation-duration: 3.5s;"></path><path class="fillCls1" d="M40.976 44.4442C40.7358 44.5058 40.5736 44.7296 40.4721 44.9571C40.4476 45.0132 40.425 45.0712 40.4023 45.1292L41.4762 44.8211C41.5179 44.5765 41.2161 44.3816 40.976 44.4442Z" fill="#0061FA" stroke-width="2px" style="animation-duration: 3.5s;"></path><path class="fillCls1" d="M50.7814 38.4071C50.7791 38.593 50.8004 38.7784 50.8449 38.959L52.1543 37.5263C51.5644 37.297 50.8186 37.7746 50.7814 38.4071Z" fill="#0061FA" stroke-width="2px" style="animation-duration: 3.5s;"></path><path class="fillCls1" d="M50.7133 39.8434C50.8864 39.6621 50.9072 39.3903 50.8746 39.1429C50.8664 39.0822 50.8556 39.0206 50.8447 38.9617L50.0898 39.7863C50.1823 40.0137 50.5411 40.0219 50.7133 39.8434Z" fill="#0061FA" stroke-width="2px" style="animation-duration: 3.5s;"></path><path class="fillCls1" d="M29.3008 37.3451V37.7628L29.4168 37.8154L29.3008 37.3451Z" fill="#0061FA" stroke-width="2px" style="animation-duration: 3.5s;"></path><path class="fillCls1" d="M29.9127 38.07C29.759 37.9652 29.5928 37.88 29.418 37.8163L29.8819 39.7011C30.4012 39.3387 30.4175 38.4551 29.9127 38.07Z" fill="#0061FA" stroke-width="2px" style="animation-duration: 3.5s;"></path><path class="fillCls1" d="M30.5363 43.6883C30.3107 43.7898 30.1874 44.0381 30.1267 44.2782C30.1113 44.338 30.0986 44.3997 30.0859 44.4595L31.0936 43.9747C31.0936 43.7318 30.7629 43.5904 30.5363 43.6883Z" fill="#0061FA" stroke-width="2px" style="animation-duration: 3.5s;"></path><path class="fillCls1" d="M29.9396 45.0004C30.0104 44.8283 30.0597 44.6482 30.0864 44.464L29.3008 44.8419V45.5079C29.4376 45.4744 29.5655 45.4117 29.6757 45.3241C29.786 45.2365 29.876 45.1261 29.9396 45.0004Z" fill="#0061FA" stroke-width="2px" style="animation-duration: 3.5s;"></path><path class="fillCls1" d="M30.5363 28.6529C30.3107 28.7544 30.1874 29.0027 30.1267 29.2429C30.1113 29.3027 30.0986 29.3643 30.0859 29.4241L31.0936 28.9393C31.0936 28.6928 30.7629 28.5551 30.5363 28.6529Z" fill="#0061FA" stroke-width="2px" style="animation-duration: 3.5s;"></path><path class="fillCls1" d="M29.9396 29.9614C30.0104 29.7893 30.0597 29.6091 30.0864 29.4249L29.3008 29.8028V30.4688C29.4375 30.4351 29.5653 30.3724 29.6756 30.2848C29.7858 30.1972 29.8759 30.0869 29.9396 29.9614V29.9614Z" fill="#0061FA" stroke-width="2px" style="animation-duration: 3.5s;"></path><path class="fillCls1" d="M55.0006 45.9466C55.0714 45.7745 55.1207 45.5943 55.1474 45.4102L53.3984 46.252C53.8606 46.6842 54.7305 46.5184 55.0006 45.9466Z" fill="#0061FA" stroke-width="2px" style="animation-duration: 3.5s;"></path><path class="fillCls1" d="M55.5988 44.6379C55.3732 44.7385 55.2499 44.9877 55.1892 45.2279C55.1738 45.2877 55.1611 45.3484 55.1484 45.4091L56.1561 44.9243C56.1561 44.6778 55.8254 44.5364 55.5988 44.6379Z" fill="#0061FA" stroke-width="2px" style="animation-duration: 3.5s;"></path></svg>