<svg width="100" height="100" viewBox="0 0 100 100" fill="none" xmlns="http://www.w3.org/2000/svg" style="width: 200px; height: 200px;"><style>
     .line-gear10 {animation:line-gear10 2s linear infinite; transform-origin: 49.25px 50.25px;}
     @keyframes line-gear10 {
         100%{transform: rotate(360deg);}
     }
     @media (prefers-reduced-motion: reduce) {
         .line-gear10 {
             animation: none;
         }
     }
    </style><path class="line-gear10 stroke1 fill1" d="M42.6226 12V16.4314C42.6226 17.1753 42.2097 17.8578 41.5507 18.203L33.227 22.563C32.4521 22.9689 31.5034 22.8241 30.8848 22.2056L27.2255 18.5463C26.4445 17.7652 25.1782 17.7652 24.3971 18.5463L17.4861 25.4573C16.729 26.2144 16.7025 27.4336 17.426 28.2229L20.7868 31.8892C21.3563 32.5105 21.4752 33.4221 21.0842 34.1687L16.6936 42.5507C16.3484 43.2097 15.6659 43.6226 14.9219 43.6226H11C9.89543 43.6226 9 44.5181 9 45.6226V55.3774C9 56.4819 9.89543 57.3774 11 57.3774H15.4054C16.163 57.3774 16.8555 57.8054 17.1943 58.4829L21.5706 67.2356C21.97 68.0343 21.7915 69.0009 21.1332 69.6043L17.6719 72.7772C16.8325 73.5466 16.804 74.8606 17.6091 75.6657L24.4628 82.5195C25.2177 83.2744 26.4325 83.3033 27.2224 82.5851L30.4408 79.6593C31.032 79.1218 31.8864 78.9878 32.6138 79.3184L41.4502 83.335C42.1642 83.6596 42.6226 84.3715 42.6226 85.1558V89C42.6226 90.1046 43.5181 91 44.6226 91H54.3774C55.4819 91 56.3774 90.1046 56.3774 89V85.1792C56.3774 84.383 56.8497 83.6626 57.5799 83.3451L66.8456 79.3165C67.599 78.9889 68.4762 79.1555 69.0572 79.7365L71.7745 82.4537C72.5555 83.2348 73.8218 83.2348 74.6029 82.4537L81.4537 75.6029C82.2348 74.8218 82.2348 73.5555 81.4537 72.7745L78.2835 69.6042C77.6747 68.9955 77.5238 68.0656 77.9088 67.2956L82.3151 58.4829C82.6539 57.8054 83.3465 57.3774 84.104 57.3774H88C89.1046 57.3774 90 56.4819 90 55.3774V45.6226C90 44.5181 89.1046 43.6226 88 43.6226H83.2906C82.4297 43.6226 81.6654 43.0718 81.3932 42.2551L78.6144 33.9187C78.4069 33.296 78.518 32.6112 78.9118 32.0862L81.8272 28.199C82.4244 27.4028 82.3452 26.2886 81.6414 25.5848L74.6029 18.5463C73.8218 17.7652 72.5555 17.7652 71.7745 18.5463L68.565 21.7558C67.9755 22.3453 67.0821 22.5073 66.3231 22.1623L57.5498 18.1744C56.8358 17.8499 56.3774 17.138 56.3774 16.3537V12C56.3774 10.8954 55.4819 10 54.3774 10H44.6226C43.5181 10 42.6226 10.8954 42.6226 12Z" fill="rgba(22,33,62,1)" stroke="rgba(0,0,0,1)" stroke-width="2px" style="animation-duration: 2s;"></path><path class="stroke1" d="M67.0753 50.2452C67.0753 60.0925 59.0924 68.0754 49.2451 68.0754C39.3978 68.0754 31.4149 60.0925 31.4149 50.2452C31.4149 40.3978 39.3978 32.415 49.2451 32.415C59.0924 32.415 67.0753 40.3978 67.0753 50.2452Z" stroke="rgba(0,0,0,1)" stroke-width="2px" style="animation-duration: 2s;"></path><path class="fill2" d="M53 44.1471L50.3269 40.2161C49.9301 39.6325 49.0699 39.6325 48.6731 40.2161L46 44.1471L53 44.1471Z" fill="rgba(233,69,96,1)" stroke-width="2px" style="animation-duration: 2s;"></path><path class="fill2" d="M58 51.5L53 44.1471L46 44.1471L41 51.5L49.5 51.5L58 51.5Z" fill="rgba(233,69,96,1)" stroke-width="2px" style="animation-duration: 2s;"></path><path class="fill2" d="M49.5 51.5L41 51.5L41 66C41 66 44.5 68 49.5 68L49.5 51.5Z" fill="rgba(233,69,96,1)" stroke-width="2px" style="animation-duration: 2s;"></path><path class="fill2" d="M58 51.5L49.5 51.5L49.5 68C54.5 68 58 65.5 58 65.5L58 51.5Z" fill="rgba(233,69,96,1)" stroke-width="2px" style="animation-duration: 2s;"></path><path class="stroke2" d="M41 51.5L46 44.1471M41 51.5L49.5 51.5M41 51.5L41 66C41 66 44.5 68 49.5 68M58 51.5L53 44.1471M58 51.5L49.5 51.5M58 51.5L58 65.5C58 65.5 54.5 68 49.5 68M53 44.1471L50.3269 40.2161C49.9301 39.6325 49.0699 39.6325 48.6731 40.2161L46 44.1471M53 44.1471L46 44.1471M49.5 51.5L49.5 68" stroke="rgba(30,30,30,1)" stroke-width="2px" style="animation-duration: 2s;"></path></svg>