<svg width="150" height="150" viewBox="0 0 150 150" fill="none" xmlns="http://www.w3.org/2000/svg" style="width: 200px; height: 200px;"><style>
     .contact10 {animation:contact10 3s infinite;}
     @keyframes contact10 {
         0%{transform: translate3d(0, -10px, 0);}
         50%{transform: translate3d(0, -2px, 0);}
         100%{transform: translate3d(0, -10px, 0);}
     }
     @media (prefers-reduced-motion: reduce) {
         .contact10 {
             animation: none;
         }
     }
    </style><path class="fillCls2" d="M62.9617 94.3401L65.2335 94.3908C82.9766 94.8224 99.6789 86.027 109.363 71.1396L112.091 56.709H135.977C138.706 56.709 140.711 59.2728 140.064 61.9127C137.018 74.2617 127.601 105.052 107.446 115.002C82.012 127.567 63.1901 112.908 63.1901 112.908L55.1436 107.273L62.9617 94.3401Z" fill="#072A3D" stroke-width="2px" style="animation-duration: 3s;"></path><path class="fillCls2" d="M35.8528 126.717C33.9744 127.237 31.9945 127.199 30.0781 127.554C28.3393 127.872 26.5371 128.646 25.5725 130.08C25.4456 130.271 25.5852 130.537 25.8136 130.55C32.5149 130.778 39.2288 131.07 45.892 130.347C46.3869 130.296 46.7804 129.89 46.8058 129.382C46.9073 127.491 47.1611 125.245 47.5673 123.531C47.6054 123.366 40.9168 122.402 40.1807 122.909C39.5842 123.315 39.3557 124.496 38.81 125.054C38.0231 125.866 36.9443 126.412 35.8528 126.717Z" fill="#072A3D" stroke-width="2px" style="animation-duration: 3s;"></path><path class="fillCls2" d="M96.247 119.002L94.9941 119.269L96.836 121.661H98.0971L96.247 119.002Z" fill="#072A3D" stroke-width="2px" style="animation-duration: 3s;"></path><path class="fillCls8" d="M59.0496 94.2126L61.3214 94.2634C79.0644 94.6949 95.7668 85.8995 105.451 71.0121L108.179 56.5816H132.065C134.794 56.5816 136.799 59.1453 136.152 61.7852C133.106 74.1343 123.689 104.924 103.534 114.875C78.0999 127.44 59.278 112.781 59.278 112.781L51.2314 107.146L59.0496 94.2126Z" fill="#B7E3F0" stroke-width="2px" style="animation-duration: 3s;"></path><path class="fillCls1" d="M86.0223 108.707L70.3353 92.3724C70.3353 92.3724 68.4569 91.8774 66.5658 91.7886C65.9312 90.1006 65.0047 88.603 63.5706 87.6257C62.0729 86.6104 60.2073 86.3184 58.4431 86.5723C52.5034 87.4226 48.8228 93.54 44.6345 97.4999C40.0528 101.84 35.268 105.927 30.6989 110.28C30.0644 110.877 23.3123 117.642 23.4393 117.756C25.7365 119.977 29.0363 120.523 32.1331 120.98C32.755 121.068 33.3896 121.157 33.9988 120.98C34.5065 120.84 34.938 120.51 35.3695 120.205C44.9772 113.161 63.9513 97.8298 63.9513 97.8298C72.7975 108.707 86.0223 108.707 86.0223 108.707Z" fill="#F26C5D" stroke-width="2px" style="animation-duration: 3s;"></path><path class="fillCls3" d="M92.9548 77.7256L94.8586 79.604L100.709 68.2702L104.809 67.4199L111.167 62.762C111.167 62.762 114.797 65.3892 117.082 66.0238C118.491 66.4172 120.229 69.3237 121.359 71.4939C122.133 72.9916 122.362 74.7176 121.994 76.3676L120.077 84.8457C118.846 90.3031 116.485 95.4433 113.135 99.9235C109.594 104.657 104.936 109.785 101.179 110.051C101.179 110.051 88.6523 95.329 88.5254 91.6484L91.4445 86.4067L89.7565 83.513L92.9548 77.7256Z" fill="#21B787" stroke-width="2px" style="animation-duration: 3s;"></path><path class="fillCls5" d="M95.4551 60.6941C95.9247 60.6687 96.3816 60.6433 96.8512 60.6179C96.9273 62.2552 97.0035 63.9178 97.6634 65.4154C98.3234 66.913 99.7068 68.1949 101.344 68.2583C102.867 68.3091 104.25 67.3192 105.773 67.2684C106.992 67.2303 108.134 66.5703 109.01 65.72C109.886 64.857 110.533 63.8035 111.167 62.7628C110.317 61.8363 109.454 60.8718 109.073 59.6787C108.528 57.978 109.061 56.125 108.731 54.3736C108.439 52.8252 107.461 51.4418 106.192 50.4899C104.923 49.538 103.387 48.9923 101.826 48.7384C100.76 48.5608 99.5799 48.5481 98.7169 49.1953C97.9681 49.7665 97.6635 50.6803 97.2573 51.4926C96.9146 52.1779 96.0516 52.8506 95.8866 53.5613C95.6581 54.5132 96.2293 55.9854 96.1785 57.0135C96.1404 58.2699 95.8993 59.5264 95.4551 60.6941Z" fill="#FDC584" stroke-width="2px" style="animation-duration: 3s;"></path><path class="fillCls6" d="M104.073 54.5891C102.499 57.1655 102.613 60.3892 102.791 63.4098C101.547 63.1814 100.405 62.4834 99.5924 61.5188C99.1481 60.9857 98.4374 60.7192 97.752 60.8207L97.0032 60.935C96.9144 60.9476 96.8129 60.9603 96.7367 61.0111C96.6098 61.0873 96.5336 61.2269 96.4829 61.3538C95.9498 62.7753 96.9144 64.4633 96.2925 65.8467C96.2037 66.0497 96.0894 66.2528 96.1148 66.4686C96.1783 67.0016 97.0413 67.192 97.0159 67.725C97.0032 67.8773 96.9271 68.0043 96.8763 68.1439C96.686 68.6896 97.0286 69.3242 97.5363 69.6034C98.044 69.8826 98.6659 69.8699 99.237 69.7557C99.8081 69.6415 100.354 69.4257 100.925 69.3115C102.105 69.0831 103.489 69.248 104.314 68.385C104.91 67.7631 104.974 66.8112 104.986 65.9482C104.999 63.0672 104.644 60.1861 104.669 57.2924C104.669 56.7721 104.694 56.239 104.872 55.744C105.113 55.0714 105.722 54.4875 106.522 54.6399C106.954 54.7287 107.322 55.0206 107.525 55.4267C108.02 56.4548 107.258 57.5716 106.256 57.8509C106.243 58.6758 106.712 59.615 107.436 60.0338C108.159 60.4527 109.098 60.4273 109.809 59.9958C109.098 58.1301 110.127 56.0994 110.355 54.1195C110.609 51.835 109.67 49.4489 107.931 47.9386C106.192 46.4283 103.704 45.8445 101.471 46.4156C99.3639 46.9613 97.5998 48.4336 95.5183 49.0555C94.8329 49.2586 94.0841 49.3855 93.5257 49.8424C92.9673 50.2993 92.7388 51.2512 93.2972 51.7207C93.513 51.8984 93.8303 51.9873 93.9826 52.2157C93.6272 52.1777 93.4369 52.6853 93.6145 53.0026C93.7922 53.3072 94.173 53.4341 94.5157 53.4976C95.1249 53.6245 95.7468 53.6499 96.3433 53.5103C97.3713 53.2691 98.209 52.533 99.0847 51.9365C99.732 51.505 100.417 51.1369 101.128 50.845C101.674 50.6293 102.321 50.4516 102.778 50.9719C102.892 51.1115 102.981 51.2765 103.032 51.4542C103.235 52.1777 102.918 52.9011 103.019 53.6245C103.07 54.1195 103.552 54.5891 104.073 54.5891Z" fill="#1C4367" stroke-width="2px" style="animation-duration: 3s;"></path><path class="fillCls5" d="M84.4247 74.4261C84.1455 74.6799 83.9551 75.0099 83.8282 75.3526C83.1809 77.1802 82.0894 78.8555 80.6807 80.1881C80.9472 80.9116 81.5691 81.0004 82.2798 80.7085C82.9906 80.4166 83.1682 80.0612 83.9805 79.1601C84.2597 79.1347 84.4882 79.4139 84.5644 79.6932C84.6405 79.9724 84.6405 80.2643 84.7674 80.5181C85.0847 81.14 85.935 81.1654 86.6331 81.1527C86.9758 81.1527 87.4708 81.1908 87.8896 81.3304C88.3465 81.47 89.7045 83.0438 89.8568 82.5869C90.1106 81.8761 90.5802 80.442 90.7833 80.0739C91.1767 79.3251 91.659 77.599 91.1387 76.7487C90.7071 76.0379 88.7907 75.2891 88.0926 74.9338C87.0392 74.3753 85.6178 73.3219 84.4247 74.4261Z" fill="#FDC584" stroke-width="2px" style="animation-duration: 3s;"></path><path class="fillCls3" d="M90.8851 76.3932L88.5371 82.0283C88.5371 82.0283 88.6767 84.1605 89.9967 84.6047C90.6439 84.8205 93.36 77.9797 93.36 77.9797L90.8851 76.3932Z" fill="#21B787" stroke-width="2px" style="animation-duration: 3s;"></path><path class="fillCls2" d="M53.0149 69.7686L59.6146 90.0246H93.9711C93.9711 88.8823 93.0446 87.1816 91.8897 87.1816H81.4317L75.2254 69.2482C75.1112 68.6644 74.5908 68.2455 74.007 68.2455H54.2333C53.4464 68.2582 52.8499 68.9944 53.0149 69.7686Z" fill="#072A3D" stroke-width="2px" style="animation-duration: 3s;"></path><path class="fillCls1" d="M101.205 109.405C96.89 114.024 90.9629 115.674 84.8201 113.847C79.3754 112.222 71.7222 105.876 62.3557 91.9155C60.1727 103.16 59.1701 102.907 57.3044 107.971C55.2483 113.555 50.4509 119.723 48.306 125.269C45.1203 125.282 41.9474 124.736 38.9521 123.67C40.5894 115.243 49.2451 85.7092 51.3139 79.8964C51.6185 79.0333 51.9993 78.1068 52.7862 77.6119C53.1669 77.3707 53.5984 77.2692 54.0426 77.193C56.3018 76.8123 58.6244 77.0154 60.82 77.7134C67.204 79.7441 73.2325 83.0693 78.9692 86.5088C82.5864 88.6791 86.2162 90.8367 89.8334 93.007C92.0671 94.3396 94.3262 95.6976 96.1919 97.5125C99.2252 100.482 101.053 105.153 101.205 109.405Z" fill="#F26C5D" stroke-width="2px" style="animation-duration: 3s;"></path><path class="fillCls2" d="M107.266 115.089L106.197 115.599L114.813 126.304H116.143L107.266 115.089Z" fill="#072A3D" stroke-width="2px" style="animation-duration: 3s;"></path><path class="fillCls2" d="M73.9181 119.019L75.0938 119.262L71.1063 128.408H69.8828L73.9181 119.019Z" fill="#072A3D" stroke-width="2px" style="animation-duration: 3s;"></path><path class="fillCls2" d="M58.349 112.129L59.3232 112.808L54.3642 121.585H53.1181L58.349 112.129Z" fill="#072A3D" stroke-width="2px" style="animation-duration: 3s;"></path><path class="fillCls2" d="M30.36 118.403C29.3954 118.365 28.5197 117.832 27.5678 117.641C26.8444 117.502 26.0956 117.565 25.4102 117.832C24.7756 118.073 24.2172 118.492 23.6461 118.847C21.095 120.446 18.0617 121.157 15.0665 121.627C14.0765 121.779 13.0865 121.906 12.1474 122.248C11.2082 122.591 10.3324 123.162 9.83745 124C9.49478 124.888 13.2388 124.508 14.9395 124.533C19.5593 124.584 24.1791 124.635 28.7989 124.406C29.4081 124.381 30.0681 124.33 30.525 123.936C31.185 123.378 31.185 122.413 31.6038 121.728C32.0734 120.954 32.6064 120.256 33.4568 119.837C33.5329 119.659 33.3553 119.444 33.2157 119.329C32.543 118.771 31.68 118.454 30.8042 118.441C30.6012 118.441 30.3854 118.454 30.1823 118.403C30.1696 118.225 30.2839 118.53 30.36 118.403Z" fill="#072A3D" stroke-width="2px" style="animation-duration: 3s;"></path><path class="fillCls7" fill-rule="evenodd" clip-rule="evenodd" d="M95.939 59.0223L95.8712 59.3262C95.8712 59.3262 95.4955 59.0223 95.3008 58.5424C95.2882 58.5113 95.2762 58.4817 95.2646 58.4533C95.1163 58.0896 95.0492 57.9249 94.9688 57.4037C94.8497 56.6321 94.8495 55.499 95.3469 55.4406C95.8146 55.3859 96.1609 56.4124 96.1609 56.4124C96.1609 56.4124 96.1932 56.7213 96.1944 56.9199C96.1958 57.1391 96.1609 57.4801 96.1609 57.4801L96.0172 56.8481L95.1889 56.9869C95.1889 56.9869 95.2739 57.7441 95.457 58.1888C95.6002 58.5364 95.939 59.0223 95.939 59.0223ZM95.1778 56.707L95.9233 56.5803C95.9233 56.5803 95.7595 55.6115 95.3664 55.6875C95.0687 55.7453 95.1778 56.707 95.1778 56.707Z" fill="#0A2A3C" stroke-width="2px" style="animation-duration: 3s;"></path><path class="fillCls7" d="M96.2487 55.9559C96.0514 55.9764 95.9609 56.0422 95.9609 56.0422L96.0925 56.2765C96.0925 56.2765 96.1994 56.2233 96.3597 56.2066C96.52 56.19 96.6844 56.2313 96.6844 56.2313V55.9764C96.6844 55.9764 96.417 55.9298 96.2487 55.9559Z" fill="#0A2A3C" stroke-width="2px" style="animation-duration: 3s;"></path><path class="fillCls7" fill-rule="evenodd" clip-rule="evenodd" d="M97.3114 54.7333C97.9944 54.6474 98.4782 55.7893 98.6647 56.6553C98.8629 57.5754 98.7849 58.8931 98.1091 58.9983C97.4332 59.1034 96.8759 57.8479 96.7307 56.9182C96.595 56.0486 96.6283 54.8191 97.3114 54.7333ZM97.4056 55.0925C97.9052 55.0098 98.276 55.9552 98.4251 56.6752C98.5835 57.4401 98.545 58.5414 98.051 58.6401C97.557 58.7388 97.1306 57.6997 97.011 56.9259C96.8991 56.2021 96.9061 55.1752 97.4056 55.0925Z" fill="#0A2A3C" stroke-width="2px" style="animation-duration: 3s;"></path><path class="fillCls7" d="M103.809 54.5067L98.5059 56.2203L98.5755 56.4755L104.02 54.6982L103.809 54.5067Z" fill="#0A2A3C" stroke-width="2px" style="animation-duration: 3s;"></path><path class="fillCls4" d="M114.165 89.8527C117.401 86.4359 121.224 80.0869 121.224 80.0869C121.224 80.0869 122.627 75.7164 122.019 72.9979C121.405 70.2541 118.248 66.7673 118.248 66.7673C118.248 66.7673 113.998 72.2721 111.459 75.8511C108.102 80.5835 103.335 88.2908 103.335 88.2908L93.4242 78.2512L90.3174 84.4622C90.3174 84.4622 93.7822 89.9902 96.6999 92.9278C99.0472 95.2912 100.004 98.2371 103.335 98.2879C103.335 98.2879 110.479 93.745 114.165 89.8527Z" fill="#4BD2A7" stroke-width="2px" style="animation-duration: 3s;"></path><g class="contact10" style="animation-duration: 3s;"><path class="fillCls9" d="M70.3463 29H18V57.726H70.3463V29Z" fill="#FAA949" stroke-width="2px"></path><path class="fillCls10" d="M38.5065 35.6291H23.0889V50.4441H38.5065V35.6291Z" fill="#FFFFFF" stroke-width="2px"></path><path class="fillCls10" d="M41.748 37.3811V35.6291H63.4204V37.3811H41.748Z" fill="#FFFFFF" stroke-width="2px"></path><path class="fillCls10" d="M41.748 41.454V39.702H63.4204V41.454H41.748Z" fill="#FFFFFF" stroke-width="2px"></path><path class="fillCls10" d="M41.748 45.5275V43.7755H58.2471V45.5275H41.748Z" fill="#FFFFFF" stroke-width="2px"></path><path class="fillCls10" d="M41.748 49.1889V47.4369H50.5278V49.1889H41.748Z" fill="#FFFFFF" stroke-width="2px"></path><path class="fillCls9" d="M34.5066 45.5557C35.5947 44.6684 36.281 43.3292 36.281 41.8226C36.281 39.1609 34.1216 37.0015 31.4599 37.0015C28.7982 37.0015 26.6387 39.1609 26.6387 41.8226C26.6387 41.8896 26.6387 41.9733 26.6387 42.0402V42.6931L25.333 45.3213L26.6387 45.7565V48.1671H29.7022L30.1374 50.5777H35.7453L34.5066 45.5389V45.5557Z" fill="#FAA949" stroke-width="2px"></path></g></svg>